<?xml version="1.0" standalone="no"?>
<!DOCTYPE svg PUBLIC "-//W3C//DTD SVG 20010904//EN"
 "http://www.w3.org/TR/2001/REC-SVG-20010904/DTD/svg10.dtd">
<svg version="1.0" xmlns="http://www.w3.org/2000/svg"
 width="241.000000pt" height="235.000000pt" viewBox="0 0 241.000000 235.000000"
 preserveAspectRatio="xMidYMid meet">

<g transform="translate(0.000000,235.000000) scale(0.100000,-0.100000)"
fill="#000000" stroke="none">
<path d="M1185 2234 c-14 -30 -16 -55 -11 -167 11 -231 16 -277 32 -277 8 0
14 6 14 13 1 6 5 100 9 207 7 155 6 202 -5 228 -7 17 -15 32 -17 32 -3 0 -12
-16 -22 -36z"/>
<path d="M650 2084 c0 -30 21 -68 111 -205 61 -93 118 -169 125 -169 8 0 14 3
14 6 0 12 -85 179 -92 182 -5 2 -8 12 -8 22 0 10 -3 20 -8 22 -4 2 -23 34 -41
71 -29 58 -73 107 -95 107 -3 0 -6 -16 -6 -36z"/>
<path d="M1723 2099 c-22 -14 -45 -47 -75 -107 -23 -48 -45 -89 -48 -92 -18
-17 -90 -184 -82 -192 13 -13 15 -10 138 180 89 138 105 168 102 197 l-3 34
-32 -20z"/>
<path d="M1110 2075 c-11 -13 -11 -27 -2 -74 7 -31 12 -72 12 -90 0 -43 20
-121 31 -121 5 0 9 60 9 133 0 118 -2 136 -19 151 -17 15 -19 15 -31 1z"/>
<path d="M1262 2070 c-18 -30 -17 -280 2 -280 15 0 26 42 26 100 0 20 5 62 11
94 9 42 9 63 1 81 -14 30 -23 31 -40 5z"/>
<path d="M807 2004 c-14 -14 -6 -44 30 -111 62 -115 88 -156 101 -161 14 -4
16 21 3 46 -6 9 -18 37 -28 62 -30 75 -77 164 -89 167 -5 2 -13 0 -17 -3z"/>
<path d="M1573 1994 c-6 -3 -30 -53 -54 -112 -23 -59 -46 -111 -51 -117 -14
-15 -9 -37 8 -33 17 3 134 220 134 249 0 18 -12 23 -37 13z"/>
<path d="M1052 1944 c-15 -27 27 -172 47 -160 11 7 2 134 -11 159 -11 21 -24
22 -36 1z"/>
<path d="M1321 1943 c-13 -25 -17 -156 -5 -160 15 -5 33 48 36 111 3 61 -11
85 -31 49z"/>
<path d="M670 1906 c0 -18 53 -102 80 -126 3 -3 21 -26 40 -52 33 -45 60 -61
60 -37 0 6 -28 54 -62 107 -80 127 -118 161 -118 108z"/>
<path d="M916 1914 c-3 -8 -2 -22 3 -32 19 -36 51 -112 51 -122 0 -5 6 -10 14
-10 17 0 29 27 16 35 -6 4 -10 17 -10 30 0 13 -4 26 -9 29 -4 3 -11 19 -14 35
-7 35 -42 59 -51 35z"/>
<path d="M1462 1912 c-12 -12 -22 -32 -22 -45 0 -13 -4 -27 -9 -32 -5 -6 -12
-27 -15 -47 -8 -44 13 -54 31 -15 46 95 54 121 46 140 -9 20 -10 20 -31 -1z"/>
<path d="M1718 1922 c-15 -3 -108 -131 -108 -148 0 -3 -11 -22 -25 -42 -14
-20 -25 -42 -25 -49 0 -32 31 -5 103 92 56 73 78 111 75 127 -2 16 -8 22 -20
20z"/>
<path d="M1005 1841 c-8 -26 15 -71 37 -71 22 0 22 10 4 55 -17 39 -32 45 -41
16z"/>
<path d="M1362 1835 c-16 -36 -15 -62 3 -69 17 -6 35 29 35 70 0 32 -24 31
-38 -1z"/>
<path d="M687 1783 c-15 -15 -4 -35 46 -89 33 -35 58 -54 65 -50 17 10 15 18
-10 51 -69 88 -87 103 -101 88z"/>
<path d="M1692 1772 c-11 -9 -36 -41 -56 -71 l-36 -54 25 -23 c15 -13 30 -24
34 -24 16 0 61 42 61 56 0 22 -40 17 -61 -8 -11 -11 -22 -19 -25 -15 -3 3 8
20 24 39 60 66 72 81 72 94 0 22 -17 25 -38 6z"/>
<path d="M1190 1731 c0 -6 5 -13 10 -16 6 -3 10 1 10 9 0 9 -4 16 -10 16 -5 0
-10 -4 -10 -9z"/>
<path d="M250 1709 c0 -6 7 -17 15 -25 8 -8 18 -21 22 -28 8 -14 343 -186 362
-186 35 0 -7 37 -149 129 -160 103 -250 143 -250 110z"/>
<path d="M1910 1600 c-90 -60 -166 -113 -168 -118 -9 -28 31 -14 189 67 219
112 277 162 187 160 -37 0 -65 -15 -208 -109z"/>
<path d="M440 1688 c0 -8 6 -21 13 -30 14 -18 212 -138 227 -138 23 0 7 28
-32 57 -24 17 -66 49 -94 71 -56 43 -114 64 -114 40z"/>
<path d="M580 1678 c0 -19 10 -29 71 -76 62 -47 69 -50 68 -24 0 9 -25 38 -55
65 -53 46 -84 59 -84 35z"/>
<path d="M1820 1615 c-52 -41 -98 -75 -102 -75 -13 0 -9 -18 5 -23 8 -3 56 22
108 55 138 89 166 118 112 118 -19 0 -58 -24 -123 -75z"/>
<path d="M690 1661 c0 -11 12 -29 26 -40 31 -25 40 -26 47 -7 7 18 -21 51 -50
60 -19 6 -23 4 -23 -13z"/>
<path d="M1730 1625 c-37 -37 -51 -58 -44 -65 7 -7 29 5 70 36 80 62 93 84 51
84 -14 0 -43 -20 -77 -55z"/>
<path d="M985 1650 c-18 -8 -17 -9 8 -9 16 -1 26 3 22 9 -3 6 -7 10 -8 9 -1 0
-11 -4 -22 -9z"/>
<path d="M1038 1623 c6 -2 18 -2 25 0 6 3 1 5 -13 5 -14 0 -19 -2 -12 -5z"/>
<path d="M1208 1623 c7 -3 16 -2 19 1 4 3 -2 6 -13 5 -11 0 -14 -3 -6 -6z"/>
<path d="M800 1586 c0 -8 7 -16 15 -20 13 -4 14 -2 5 14 -13 23 -20 26 -20 6z"/>
<path d="M1368 1563 c7 -3 16 -2 19 1 4 3 -2 6 -13 5 -11 0 -14 -3 -6 -6z"/>
<path d="M365 1551 c-5 -10 40 -51 56 -51 5 0 28 -8 52 -19 64 -28 145 -61
151 -61 3 0 6 6 6 14 0 8 -21 25 -47 39 -27 14 -68 36 -93 48 -25 13 -46 27
-48 32 -5 10 -70 9 -77 -2z"/>
<path d="M1970 1551 c0 -5 -8 -11 -17 -15 -16 -5 -117 -61 -169 -93 -14 -8
-16 -15 -8 -23 8 -8 19 -6 40 5 16 8 32 15 36 15 4 0 37 14 73 30 36 17 69 30
74 30 13 0 52 46 44 53 -10 10 -73 8 -73 -2z"/>
<path d="M1291 1534 c0 -11 3 -14 6 -6 3 7 2 16 -1 19 -3 4 -6 -2 -5 -13z"/>
<path d="M1520 1521 c0 -12 10 -31 22 -43 32 -32 35 -5 4 33 -23 27 -26 28
-26 10z"/>
<path d="M1580 1453 c0 -15 29 -49 30 -35 0 7 -7 20 -15 28 -8 9 -15 11 -15 7z"/>
<path d="M447 1443 c-13 -13 27 -43 65 -49 21 -4 41 -11 44 -15 3 -5 16 -9 30
-9 47 0 22 31 -45 56 -67 25 -83 28 -94 17z"/>
<path d="M1863 1418 c-40 -17 -73 -35 -73 -39 0 -12 67 -11 75 1 3 6 17 10 29
10 27 0 79 37 71 51 -9 14 -24 11 -102 -23z"/>
<path d="M760 1384 c0 -14 3 -14 15 -4 8 7 15 14 15 16 0 2 -7 4 -15 4 -8 0
-15 -7 -15 -16z"/>
<path d="M1208 1393 c7 -3 16 -2 19 1 4 3 -2 6 -13 5 -11 0 -14 -3 -6 -6z"/>
<path d="M1331 1354 c0 -11 3 -14 6 -6 3 7 2 16 -1 19 -3 4 -6 -2 -5 -13z"/>
<path d="M1855 1360 c-3 -5 -15 -10 -26 -10 -10 0 -27 -4 -37 -10 -23 -13
-142 -50 -161 -50 -11 0 -12 -3 -4 -11 7 -7 33 -5 89 7 44 9 97 19 119 22 62
7 83 31 46 52 -13 7 -22 7 -26 0z"/>
<path d="M511 1351 c-21 -14 10 -41 46 -41 16 0 33 -4 39 -9 5 -5 27 -11 49
-15 22 -3 57 -8 78 -12 62 -11 41 10 -35 35 -40 12 -80 26 -88 31 -29 14 -75
20 -89 11z"/>
<path d="M406 1296 c3 -9 16 -18 28 -21 38 -8 264 -35 297 -35 44 0 25 16 -26
23 -22 3 -76 13 -120 22 -44 10 -104 20 -133 22 -45 4 -51 3 -46 -11z"/>
<path d="M1810 1284 c-156 -40 -165 -44 -80 -39 117 7 242 24 257 36 43 36
-39 37 -177 3z"/>
<path d="M990 1270 c0 -5 7 -10 15 -10 8 0 15 5 15 10 0 6 -7 10 -15 10 -8 0
-15 -4 -15 -10z"/>
<path d="M783 1263 c9 -2 23 -2 30 0 6 3 -1 5 -18 5 -16 0 -22 -2 -12 -5z"/>
<path d="M1337 1258 c33 -16 37 -38 8 -38 -14 0 -25 -4 -25 -10 0 -5 6 -10 14
-10 25 0 66 19 66 30 0 21 -28 40 -57 39 -27 0 -27 -1 -6 -11z"/>
<path d="M1578 1263 c6 -2 18 -2 25 0 6 3 1 5 -13 5 -14 0 -19 -2 -12 -5z"/>
<path d="M286 1252 c-18 -8 -17 -10 9 -30 27 -21 36 -22 253 -22 226 0 277 8
134 22 -42 4 -113 12 -157 17 -148 17 -220 21 -239 13z"/>
<path d="M1159 1255 c-3 -20 3 -50 13 -62 6 -7 11 -38 12 -68 1 -55 18 -76 29
-35 4 17 13 20 64 20 80 0 94 -12 43 -35 -22 -10 -40 -22 -40 -27 0 -5 3 -8 8
-6 4 2 21 10 37 17 17 7 38 17 47 22 10 5 24 9 32 9 7 0 19 7 26 15 11 13 1
15 -77 15 -58 0 -93 4 -101 12 -10 10 -15 10 -22 -1 -9 -15 -19 2 -54 94 -8
22 -16 36 -17 30z"/>
<path d="M1970 1249 c-36 -5 -93 -13 -126 -19 -34 -5 -79 -10 -100 -10 -22 0
-46 -5 -54 -10 -23 -15 375 -13 403 1 29 16 39 32 24 41 -15 9 -61 8 -147 -3z"/>
<path d="M1593 1223 c9 -2 23 -2 30 0 6 3 -1 5 -18 5 -16 0 -22 -2 -12 -5z"/>
<path d="M133 1184 c-18 -8 -33 -18 -33 -23 0 -4 17 -16 39 -25 30 -14 55 -17
122 -12 95 7 394 25 423 25 15 1 17 4 9 12 -7 7 -93 14 -235 19 -123 5 -239
11 -258 14 -21 3 -48 -1 -67 -10z"/>
<path d="M1026 1185 c-3 -8 -1 -15 5 -15 5 0 15 -13 20 -30 12 -33 39 -40 59
-15 11 13 8 15 -19 15 -18 0 -31 5 -31 13 0 6 -7 20 -14 30 -12 15 -14 16 -20
2z"/>
<path d="M2110 1190 c-30 -5 -109 -9 -175 -10 -66 -1 -156 -7 -200 -14 l-80
-12 79 -7 c43 -4 122 -7 175 -7 53 0 147 -5 209 -11 99 -9 119 -8 148 6 41 19
36 36 -16 53 -43 13 -56 13 -140 2z"/>
<path d="M363 1111 c-39 -4 -69 -12 -79 -23 -16 -16 -16 -17 7 -23 13 -3 60
-1 104 4 44 6 125 15 180 21 177 21 180 28 10 27 -88 0 -188 -3 -222 -6z"/>
<path d="M962 1095 c13 -30 38 -33 38 -5 0 13 -5 18 -15 14 -8 -4 -15 -1 -15
5 0 6 -4 11 -10 11 -6 0 -5 -10 2 -25z"/>
<path d="M1600 1117 c3 -3 52 -10 110 -17 58 -6 164 -18 237 -27 127 -15 183
-13 183 7 0 26 -53 33 -290 38 -135 2 -243 2 -240 -1z"/>
<path d="M803 1093 c9 -2 23 -2 30 0 6 3 -1 5 -18 5 -16 0 -22 -2 -12 -5z"/>
<path d="M705 1084 c-5 -2 -53 -8 -105 -14 -136 -14 -173 -21 -187 -32 -32
-26 0 -39 62 -25 58 12 114 24 165 37 25 6 62 13 83 17 26 4 34 9 25 14 -14 9
-26 10 -43 3z"/>
<path d="M1678 1073 c23 -2 42 -8 42 -12 0 -4 33 -14 73 -21 39 -7 79 -17 89
-21 20 -11 106 -15 114 -6 15 15 -21 37 -60 37 -22 0 -59 4 -81 9 -22 5 -80
11 -130 14 -49 2 -71 2 -47 0z"/>
<path d="M1585 1060 c-3 -5 3 -10 15 -10 12 0 18 5 15 10 -3 6 -10 10 -15 10
-5 0 -12 -4 -15 -10z"/>
<path d="M803 1053 c9 -2 23 -2 30 0 6 3 -1 5 -18 5 -16 0 -22 -2 -12 -5z"/>
<path d="M1078 1053 c7 -3 16 -2 19 1 4 3 -2 6 -13 5 -11 0 -14 -3 -6 -6z"/>
<path d="M1160 1054 c0 -29 -113 -58 -123 -31 -3 6 -6 0 -6 -15 -1 -34 23 -39
81 -17 28 11 64 56 54 67 -3 3 -6 1 -6 -4z"/>
<path d="M1221 1045 c-1 -31 59 -93 78 -80 12 7 -40 65 -57 65 -6 0 -13 8 -15
18 -4 14 -5 14 -6 -3z"/>
<path d="M718 1044 c-4 -3 -32 -10 -65 -15 -32 -6 -74 -13 -93 -16 -19 -3 -40
-12 -47 -19 -11 -10 -9 -16 9 -29 14 -9 24 -11 26 -5 2 5 14 10 26 10 13 0 26
3 29 7 10 10 139 52 160 53 9 0 17 5 17 10 0 11 -53 14 -62 4z"/>
<path d="M1352 1025 c0 -16 2 -22 5 -12 2 9 2 23 0 30 -3 6 -5 -1 -5 -18z"/>
<path d="M1640 1040 c0 -5 9 -10 19 -10 11 0 23 -4 26 -10 3 -5 17 -10 30 -10
13 0 27 -4 30 -10 3 -5 15 -10 26 -10 10 0 28 -4 39 -10 11 -5 29 -14 40 -20
14 -7 23 -5 35 6 22 22 2 44 -41 44 -18 0 -36 5 -39 10 -3 6 -26 10 -50 10
-24 0 -47 5 -50 10 -3 6 -19 10 -36 10 -16 0 -29 -4 -29 -10z"/>
<path d="M1710 977 c0 -10 8 -17 18 -17 9 0 13 4 7 8 -5 4 -13 11 -17 16 -5 5
-8 2 -8 -7z"/>
<path d="M526 939 c-60 -20 -86 -35 -86 -50 0 -17 49 -9 109 18 34 15 61 33
61 40 0 16 -11 15 -84 -8z"/>
<path d="M1751 934 c0 -11 3 -14 6 -6 3 7 2 16 -1 19 -3 4 -6 -2 -5 -13z"/>
<path d="M1789 936 c19 -23 140 -68 163 -60 20 6 20 7 2 24 -22 20 -111 50
-150 50 -22 0 -24 -3 -15 -14z"/>
<path d="M555 885 c-33 -14 -69 -29 -80 -34 -11 -5 -36 -16 -56 -25 -19 -8
-43 -24 -53 -35 -18 -20 -18 -20 9 -27 19 -5 39 0 68 16 23 12 65 35 92 50 77
41 95 54 95 67 0 17 -5 16 -75 -12z"/>
<path d="M1760 892 c0 -5 26 -22 58 -39 31 -17 83 -44 116 -62 57 -31 100 -39
110 -22 10 16 -31 42 -129 81 -11 4 -41 17 -67 29 -49 22 -88 27 -88 13z"/>
<path d="M580 828 c-30 -16 -104 -55 -165 -85 -155 -79 -208 -133 -131 -133
27 0 72 24 205 111 94 62 171 118 171 125 0 20 -18 16 -80 -18z"/>
<path d="M1744 849 c-9 -14 -12 -12 172 -132 110 -71 173 -106 198 -109 23 -2
36 0 36 8 0 31 -53 71 -179 133 -75 38 -153 78 -174 89 -44 25 -44 25 -53 11z"/>
<path d="M1584 783 c0 -20 2 -31 4 -24 2 6 10 11 18 11 8 0 14 4 14 9 0 5 3
18 7 28 6 16 5 17 -11 4 -13 -11 -19 -12 -25 -3 -4 6 -7 -5 -7 -25z"/>
<path d="M572 749 c-51 -32 -96 -59 -99 -59 -9 0 -32 -34 -33 -47 0 -30 52
-11 120 44 8 6 41 33 73 58 31 26 55 51 52 56 -9 14 -13 12 -113 -52z"/>
<path d="M1706 801 c-6 -10 14 -28 119 -107 81 -62 135 -84 135 -57 0 23 -40
57 -130 110 -97 57 -117 65 -124 54z"/>
<path d="M665 739 c-67 -50 -85 -68 -85 -84 0 -8 8 -15 18 -15 22 0 136 106
127 120 -9 15 -16 13 -60 -21z"/>
<path d="M893 753 c-18 -7 -16 -30 3 -37 28 -11 38 -6 19 7 -10 8 -15 19 -11
25 8 13 7 13 -11 5z"/>
<path d="M1670 753 c0 -15 115 -113 133 -113 32 0 14 32 -43 77 -50 39 -90 54
-90 36z"/>
<path d="M712 707 c-31 -33 -29 -57 5 -57 l27 0 -32 -33 c-39 -41 -45 -97 -7
-69 18 13 95 119 95 130 0 7 -6 12 -14 12 -8 0 -18 9 -21 20 -8 26 -27 25 -53
-3z"/>
<path d="M1640 715 c-9 -11 -7 -19 14 -40 14 -14 32 -25 41 -25 23 0 18 34
-10 58 -30 26 -29 26 -45 7z"/>
<path d="M947 689 c7 -7 15 -10 18 -7 3 3 -2 9 -12 12 -14 6 -15 5 -6 -5z"/>
<path d="M1595 680 c-4 -6 -1 -18 7 -28 7 -9 18 -23 25 -32 44 -57 67 -80 79
-80 29 0 12 44 -38 96 -53 56 -62 61 -73 44z"/>
<path d="M751 564 c-73 -97 -98 -142 -84 -155 15 -13 51 9 64 40 8 17 17 31
21 31 5 0 8 5 8 11 0 6 13 29 29 52 49 72 63 104 47 110 -9 4 -40 -29 -85 -89z"/>
<path d="M1264 633 c6 -18 2 -22 -21 -26 -15 -2 -3 -4 27 -5 30 0 48 2 40 5
-8 4 -23 16 -34 27 l-18 21 6 -22z"/>
<path d="M1550 641 c0 -5 23 -43 50 -85 28 -42 50 -81 50 -86 0 -6 5 -10 10
-10 6 0 10 -6 10 -14 0 -17 37 -46 58 -46 28 0 -18 94 -68 140 -3 3 -23 29
-45 58 -35 47 -65 67 -65 43z"/>
<path d="M817 545 c-32 -47 -57 -89 -57 -95 0 -5 -4 -10 -10 -10 -5 0 -10 -4
-10 -10 0 -5 -19 -36 -41 -70 -39 -56 -66 -135 -49 -145 3 -2 20 6 37 18 22
15 55 70 117 192 81 161 98 205 78 205 -5 0 -34 -38 -65 -85z"/>
<path d="M1511 621 c-10 -6 7 -48 74 -177 106 -205 110 -211 148 -231 28 -14
29 -14 23 2 -3 9 -6 29 -6 45 0 39 -220 372 -239 361z"/>
<path d="M1138 603 c6 -2 18 -2 25 0 6 3 1 5 -13 5 -14 0 -19 -2 -12 -5z"/>
<path d="M861 488 c-34 -62 -61 -124 -61 -140 0 -57 38 -21 76 73 33 82 54
130 64 150 9 17 4 29 -11 29 -4 0 -35 -50 -68 -112z"/>
<path d="M1456 591 c-4 -6 3 -32 15 -58 11 -26 27 -61 34 -78 7 -16 20 -49 30
-73 18 -42 46 -68 59 -55 15 15 2 54 -44 137 -28 49 -50 92 -50 96 0 15 -38
41 -44 31z"/>
<path d="M962 568 c-7 -7 -12 -18 -12 -25 0 -8 -9 -33 -20 -55 -22 -45 -25
-74 -11 -83 14 -8 40 22 47 53 3 15 10 36 14 47 23 51 11 92 -18 63z"/>
<path d="M1401 558 c-6 -13 -10 -17 -10 -10 -1 6 -10 12 -21 12 -25 0 -27 -35
-4 -68 19 -28 28 -28 41 0 8 19 11 17 22 -25 14 -49 33 -73 51 -62 14 9 13 21
-6 63 -9 21 -23 51 -30 69 -19 43 -32 49 -43 21z"/>
<path d="M1017 553 c-10 -18 -15 -59 -8 -76 6 -18 7 -18 23 0 23 26 27 77 6
81 -9 2 -18 -1 -21 -5z"/>
<path d="M1073 528 c-14 -31 -32 -130 -26 -145 7 -19 30 -16 38 5 4 9 9 50 12
90 6 73 -4 93 -24 50z"/>
<path d="M1296 541 c-4 -5 -2 -21 4 -36 5 -14 10 -45 10 -69 0 -56 31 -89 45
-47 8 28 -25 161 -41 161 -7 0 -15 -4 -18 -9z"/>
<path d="M1125 528 c-2 -7 -6 -42 -9 -78 -3 -36 -8 -91 -12 -122 -8 -71 7 -99
37 -72 17 15 19 33 19 151 0 113 -2 133 -15 133 -9 0 -17 -6 -20 -12z"/>
<path d="M1187 533 c-3 -4 -7 -106 -9 -225 -3 -189 -1 -219 13 -233 15 -15 17
-13 32 24 17 40 16 163 -1 360 -6 67 -21 97 -35 74z"/>
<path d="M1247 533 c-2 -5 -1 -64 1 -133 3 -86 8 -131 18 -145 14 -19 14 -19
29 1 8 10 13 28 10 39 -3 11 -8 40 -10 65 -16 138 -33 201 -48 173z"/>
</g>
</svg>
